<svg width="60" height="52" viewBox="0 0 60 52" xmlns="http://www.w3.org/2000/svg"><g fill-rule="nonzero" fill="none"><path d="M22.157 11.25c.78-2.148 1.884-4.232 3.443-6.055l7.407 12.89-2.014 2.02-8.836-8.855zM1.884 17.89c.715 8.204 6.433 15.495 14.88 17.774 8.446 2.279 17.023-1.172 21.766-7.943l-36.646-9.83z" fill="#96ADFA"/><path d="M21.962 23.294c-1.235-3.971-1.17-8.203.195-12.044l8.836 8.854-4.418 4.427-4.613-1.237z" fill="#5E7CE0"/><path d="M21.962 23.294l-3.639-.976c-1.494-4.558-1.17-9.57.845-13.998l2.989 2.995c-1.365 3.776-1.43 7.943-.195 11.98zM15.724 35.339l-4.093 4.101C6.498 37.292 2.469 32.995.585 27.721h4.938c2.339 3.516 5.913 6.185 10.201 7.618z" fill="#7693F5" opacity=".4"/><path d="M38.465 27.852C35.606 35.599 28.2 41.068 19.558 41.068c-2.794 0-5.458-.586-7.927-1.628l4.093-4.101c.325.13.715.195 1.04.325 8.381 2.214 16.958-1.172 21.701-7.812z" fill="#5E7CE0"/><path d="M44.638 19.258c.845 0 1.494-.651 1.494-1.498 0-.846-.65-1.497-1.494-1.497-.845 0-1.494.651-1.494 1.497 0 .847.65 1.498 1.494 1.498zm-6.173 8.594l.065-.13-11.955-3.19 9.421-9.44a9.279 9.279 0 0 1 6.563-2.735c1.884 0 3.638.586 5.068 1.497.065.065.195.13.26.195.455.326.844.652 1.17.977 1.364 1.367 3.313 2.214 5.457 2.214l10.916.325c.195 0 .325.13.325.326 0 .195-.13.325-.325.325l-7.277.456c-5.718.325-10.656 3.646-12.475 8.789-.455 1.172-.91 2.279-1.495 3.385C38.92 41.003 28.264 47.97 16.05 47.97c-3.834 0-7.537-.651-10.916-1.953l6.563-6.576c2.404 1.042 5.068 1.563 7.862 1.563 8.641.065 16.048-5.47 18.907-13.151z" fill="#7693F5"/><path d="M44.638 19.258c.845 0 1.494-.651 1.494-1.498 0-.846-.65-1.497-1.494-1.497-.845 0-1.494.651-1.494 1.497 0 .847.65 1.498 1.494 1.498zM77.695 24v-9.445h-3.468v-2.04h9.335v2.04h-3.468V24h-2.399zm7.203 0v-8.5h2.243V24h-2.243zm-.023-11.57h2.281v2.078h-2.281V12.43zM89.258 24v-8.5h2.133v1.258c.088-.151.185-.294.289-.43.552-.703 1.354-1.055 2.406-1.055.896 0 1.598.266 2.105.797.508.532.762 1.269.762 2.211V24h-2.242v-5.313c0-.526-.113-.915-.34-1.167-.226-.253-.574-.38-1.043-.38-.588 0-1.04.178-1.355.532-.315.354-.473.864-.473 1.531V24h-2.242zm17.36-8.5l-3.048 8.68c-.49 1.432-.909 2.33-1.257 2.695-.35.365-.972.547-1.868.547l-1.07-.024v-1.796c.052.02.195.03.43.03.599 0 .99-.122 1.172-.366.114-.157.229-.48.343-.97L98.148 15.5h2.477l1.852 6.305 1.796-6.305h2.344zM80.151 41.312c-1.67 0-2.995-.54-3.976-1.617-.982-1.078-1.473-2.536-1.473-4.375 0-1.875.51-3.363 1.531-4.465 1.021-1.101 2.401-1.652 4.141-1.652 1.396 0 2.546.35 3.45 1.047.903.698 1.43 1.64 1.581 2.828H83c-.063-.5-.344-.939-.844-1.316a2.685 2.685 0 0 0-1.656-.567c-1.042 0-1.857.361-2.445 1.082-.589.722-.883 1.723-.883 3.004 0 1.302.282 2.293.848 2.973.564.679 1.39 1.019 2.476 1.02.925-.002 1.648-.356 2.168-1.063.287-.401.497-.872.633-1.414v-.024h-2.703v-1.976h4.812v6.195h-1.601l-.235-1.484-.14.187c-.807 1.077-1.9 1.616-3.278 1.617zm9.371-.093c-.786 0-1.419-.226-1.898-.676-.48-.45-.719-1.043-.719-1.777 0-.776.216-1.398.649-1.864.432-.466 1.062-.759 1.89-.879l1.477-.203c.385-.052.706-.14.96-.265a.533.533 0 0 0 .255-.282.757.757 0 0 0-.3-.977c-.256-.16-.623-.241-1.103-.241-.427 0-.76.104-1 .312-.24.209-.367.503-.382.883h-2.149c.047-.995.386-1.74 1.016-2.234.63-.495 1.554-.743 2.773-.743 1.057 0 1.892.223 2.504.668.612.446.918 1.054.918 1.825v4.75c0 .38.031.647.094.8.062.154.187.275.375.364v.312H92.46a5.542 5.542 0 0 1-.195-1.008l-.008-.015c-.703.833-1.615 1.25-2.735 1.25zm2.696-3.36v-.976c-.26.146-.604.263-1.031.351l-.829.157c-.39.073-.687.207-.89.402a.981.981 0 0 0-.305.738c0 .339.091.604.273.797.183.193.438.29.766.29.719 0 1.292-.253 1.719-.759.083-.099.154-.244.21-.437a1.97 1.97 0 0 0 .087-.563zm8.07 3.188a17.08 17.08 0 0 1-1.383.047c-.791 0-1.36-.142-1.707-.426-.346-.284-.52-.749-.52-1.395V34.07H95.5V32.5h1.18v-2.29h2.242v2.29h1.367v1.57h-1.367v4.828c0 .198.058.329.176.391.117.063.36.094.73.094h.461v1.664zm4.79.172c-1.293 0-2.289-.399-2.99-1.196-.7-.796-1.05-1.932-1.05-3.406 0-1.36.357-2.423 1.07-3.191.714-.768 1.703-1.153 2.97-1.153 1.296 0 2.295.392 2.995 1.176.7.784 1.051 1.9 1.051 3.348.01.167-.003.336-.04.508h-5.788c.052.672.2 1.174.445 1.508.313.416.834.624 1.563.624.338 0 .652-.096.941-.289.29-.192.462-.424.52-.695h2.28c-.192.865-.638 1.542-1.339 2.031-.7.49-1.577.735-2.629.735zm1.71-5.344c-.052-.51-.187-.909-.406-1.195-.287-.38-.732-.57-1.336-.57-.578 0-1.018.22-1.32.663-.188.282-.323.649-.407 1.102h3.47z" fill="#FFF"/></g></svg>